HIERARCHY
ROOT Hips
{
	OFFSET -14.64140 90.27770 -84.91600
	CHANNELS 6 Xposition Yposition Zposition Zrotation Xrotation Yrotation
	JOINT Spine
	{
		OFFSET 0.00000 13.20850 -1.60436
		CHANNELS 3 Zrotation Xrotation Yrotation
		JOINT Spine1
		{
			OFFSET 0.00000 8.61716 0.00000
			CHANNELS 3 Zrotation Xrotation Yrotation
			JOINT Spine2
			{
				OFFSET 0.00000 8.61717 0.00000
				CHANNELS 3 Zrotation Xrotation Yrotation
				JOINT Spine3
				{
					OFFSET 0.00000 8.61717 0.00000
					CHANNELS 3 Zrotation Xrotation Yrotation
					JOINT Neck
					{
						OFFSET 0.00000 11.07920 1.10792
						CHANNELS 3 Zrotation Xrotation Yrotation
						JOINT Neck1
						{
							OFFSET 0.00000 7.08032 0.00000
							CHANNELS 3 Zrotation Xrotation Yrotation
							JOINT Head
							{
								OFFSET 0.00000 7.08031 0.00000
								CHANNELS 3 Zrotation Xrotation Yrotation
								End site
								{
									OFFSET 0.00000 0.00000 0.00000
								}
							}
						}
					}
					JOINT RightShoulder
					{
						OFFSET -0.01000 7.91373 5.19711
						CHANNELS 3 Zrotation Xrotation Yrotation
						JOINT RightArm
						{
							OFFSET -18.41580 0.00000 0.00000
							CHANNELS 3 Zrotation Xrotation Yrotation
							JOINT RightForeArm
							{
								OFFSET -29.11090 0.00000 0.00000
								CHANNELS 3 Zrotation Xrotation Yrotation
								JOINT RightHand
								{
									OFFSET -24.65040 0.00000 0.00000
									CHANNELS 3 Zrotation Xrotation Yrotation
									JOINT RightHandThumb1
									{
										OFFSET -5.35114 -0.85590 3.97906
										CHANNELS 3 Zrotation Xrotation Yrotation
										JOINT RightHandThumb2
										{
											OFFSET -4.52789 0.00000 0.00000
											CHANNELS 3 Zrotation Xrotation Yrotation
											JOINT RightHandThumb3
											{
												OFFSET -2.46976 0.00000 0.00000
												CHANNELS 3 Zrotation Xrotation Yrotation
												End site
												{
													OFFSET 0.00000 0.00000 0.00000
												}
											}
										}
									}
									JOINT RightHandIndex1
									{
										OFFSET -14.26970 0.00000 2.88139
										CHANNELS 3 Zrotation Xrotation Yrotation
										JOINT RightHandIndex2
										{
											OFFSET -5.48836 0.00000 0.00000
											CHANNELS 3 Zrotation Xrotation Yrotation
											JOINT RightHandIndex3
											{
												OFFSET -3.01859 0.00000 0.00000
												CHANNELS 3 Zrotation Xrotation Yrotation
												End site
												{
													OFFSET 0.00000 0.00000 0.00000
												}
											}
										}
									}
									JOINT RightHandMiddle1
									{
										OFFSET -14.26970 0.00000 -0.09147
										CHANNELS 3 Zrotation Xrotation Yrotation
										JOINT RightHandMiddle2
										{
											OFFSET -6.17441 0.00000 0.00000
											CHANNELS 3 Zrotation Xrotation Yrotation
											JOINT RightHandMiddle3
											{
												OFFSET -3.56743 0.00000 0.00000
												CHANNELS 3 Zrotation Xrotation Yrotation
												End site
												{
													OFFSET 0.00000 0.00000 0.00000
												}
											}
										}
									}
									JOINT RightHandRing1
									{
										OFFSET -12.69180 0.00000 -3.06433
										CHANNELS 3 Zrotation Xrotation Yrotation
										JOINT RightHandRing2
										{
											OFFSET -5.62556 0.00000 0.00000
											CHANNELS 3 Zrotation Xrotation Yrotation
											JOINT RightHandRing3
											{
												OFFSET -3.56744 0.00000 0.00000
												CHANNELS 3 Zrotation Xrotation Yrotation
												End site
												{
													OFFSET 0.00000 0.00000 0.00000
												}
											}
										}
									}
									JOINT RightHandPinky1
									{
										OFFSET -11.11390 0.00000 -6.03719
										CHANNELS 3 Zrotation Xrotation Yrotation
										JOINT RightHandPinky2
										{
											OFFSET -4.52789 0.00000 0.00000
											CHANNELS 3 Zrotation Xrotation Yrotation
											JOINT RightHandPinky3
											{
												OFFSET -2.46976 0.00000 0.00000
												CHANNELS 3 Zrotation Xrotation Yrotation
												End site
												{
													OFFSET 0.00000 0.00000 0.00000
												}
											}
										}
									}
								}
							}
						}
					}
					JOINT LeftShoulder
					{
						OFFSET 0.01000 7.91373 5.19711
						CHANNELS 3 Zrotation Xrotation Yrotation
						JOINT LeftArm
						{
							OFFSET 18.41580 0.00000 0.00000
							CHANNELS 3 Zrotation Xrotation Yrotation
							JOINT LeftForeArm
							{
								OFFSET 29.11090 0.00000 0.00000
								CHANNELS 3 Zrotation Xrotation Yrotation
								JOINT LeftHand
								{
									OFFSET 24.65040 0.00000 0.00000
									CHANNELS 3 Zrotation Xrotation Yrotation
									JOINT LeftHandThumb1
									{
										OFFSET 5.35114 -0.85590 3.97906
										CHANNELS 3 Zrotation Xrotation Yrotation
										JOINT LeftHandThumb2
										{
											OFFSET 4.52789 0.00000 0.00000
											CHANNELS 3 Zrotation Xrotation Yrotation
											JOINT LeftHandThumb3
											{
												OFFSET 2.46977 0.00000 0.00000
												CHANNELS 3 Zrotation Xrotation Yrotation
												End site
												{
													OFFSET 0.00000 0.00000 0.00000
												}
											}
										}
									}
									JOINT LeftHandIndex1
									{
										OFFSET 14.26970 0.00000 2.88139
										CHANNELS 3 Zrotation Xrotation Yrotation
										JOINT LeftHandIndex2
										{
											OFFSET 5.48836 0.00000 0.00000
											CHANNELS 3 Zrotation Xrotation Yrotation
											JOINT LeftHandIndex3
											{
												OFFSET 3.01859 0.00000 0.00000
												CHANNELS 3 Zrotation Xrotation Yrotation
												End site
												{
													OFFSET 0.00000 0.00000 0.00000
												}
											}
										}
									}
									JOINT LeftHandMiddle1
									{
										OFFSET 14.26970 0.00000 -0.09147
										CHANNELS 3 Zrotation Xrotation Yrotation
										JOINT LeftHandMiddle2
										{
											OFFSET 6.17440 0.00000 0.00000
											CHANNELS 3 Zrotation Xrotation Yrotation
											JOINT LeftHandMiddle3
											{
												OFFSET 3.56744 0.00000 0.00000
												CHANNELS 3 Zrotation Xrotation Yrotation
												End site
												{
													OFFSET 0.00000 0.00000 0.00000
												}
											}
										}
									}
									JOINT LeftHandRing1
									{
										OFFSET 12.69180 0.00000 -3.06433
										CHANNELS 3 Zrotation Xrotation Yrotation
										JOINT LeftHandRing2
										{
											OFFSET 5.62556 0.00000 0.00000
											CHANNELS 3 Zrotation Xrotation Yrotation
											JOINT LeftHandRing3
											{
												OFFSET 3.56744 0.00000 0.00000
												CHANNELS 3 Zrotation Xrotation Yrotation
												End site
												{
													OFFSET 0.00000 0.00000 0.00000
												}
											}
										}
									}
									JOINT LeftHandPinky1
									{
										OFFSET 11.11390 0.00000 -6.03719
										CHANNELS 3 Zrotation Xrotation Yrotation
										JOINT LeftHandPinky2
										{
											OFFSET 4.52789 0.00000 0.00000
											CHANNELS 3 Zrotation Xrotation Yrotation
											JOINT LeftHandPinky3
											{
												OFFSET 2.46976 0.00000 0.00000
												CHANNELS 3 Zrotation Xrotation Yrotation
												End site
												{
													OFFSET 0.00000 0.00000 0.00000
												}
											}
										}
									}
								}
							}
						}
					}
					JOINT pCube4
					{
						OFFSET 0.00000 10.91090 1.10792
						CHANNELS 3 Zrotation Xrotation Yrotation
						End site
						{
							OFFSET 0.00000 0.00000 0.00000
						}
					}
				}
			}
		}
	}
	JOINT RightUpLeg
	{
		OFFSET -9.98441 0.00000 0.00000
		CHANNELS 3 Zrotation Xrotation Yrotation
		JOINT RightLeg
		{
			OFFSET 0.00000 -42.11790 0.00000
			CHANNELS 3 Zrotation Xrotation Yrotation
			JOINT RightFoot
			{
				OFFSET 0.00000 -45.00020 -0.00001
				CHANNELS 3 Zrotation Xrotation Yrotation
				JOINT RightForeFoot
				{
					OFFSET 0.00000 -3.74820 0.00000
					CHANNELS 3 Zrotation Xrotation Yrotation
					JOINT RightToeBase
					{
						OFFSET 0.00000 0.06325 14.43120
						CHANNELS 3 Zrotation Xrotation Yrotation
						End site
						{
							OFFSET 0.00000 0.00000 0.00000
						}
					}
				}
			}
		}
	}
	JOINT LeftUpLeg
	{
		OFFSET 9.98441 0.00000 0.00000
		CHANNELS 3 Zrotation Xrotation Yrotation
		JOINT LeftLeg
		{
			OFFSET 0.00000 -42.11800 0.00000
			CHANNELS 3 Zrotation Xrotation Yrotation
			JOINT LeftFoot
			{
				OFFSET 0.00000 -45.00070 0.00000
				CHANNELS 3 Zrotation Xrotation Yrotation
				JOINT LeftForeFoot
				{
					OFFSET 0.00000 -3.74824 0.00000
					CHANNELS 3 Zrotation Xrotation Yrotation
					JOINT LeftToeBase
					{
						OFFSET 0.00000 0.06325 14.43110
						CHANNELS 3 Zrotation Xrotation Yrotation
						End site
						{
							OFFSET 0.00000 0.00000 0.00000
						}
					}
				}
			}
		}
	}
}
MOTION
Frames: 4
Frame Time: 0.050000
0.0065148406161581116 0.023952104310396804 0.03334016632380204 0.009016690121582323 0.026550054603890594 0.0026281297561033226 5.893365087976713 3.0717535823167283 -2.331672674137186 -0.7332399252823765 3.384226897361291 0.3494346385844467 -0.5060401808193848 -1.0113917582892955 0.6350429795428137 -0.21588353166881846 -0.5105356135184708 -0.24357158394957107 0.2116822585924211 11.24810499197225 -1.725942590627772 0.46607431784239606 -0.619318949089884 -3.235588266239324 1.0334685371203662 -17.006248968862092 -0.28315634880740587 -9.293845278627227 3.349950739869046 -18.845258197961808 80.41116285485356 1.6047714306288712 -3.4244613471536063 0.6193131809355007 7.722132769614922 56.13036535121085 17.554944343521303 -0.2964031047827502 -2.9128768110848875 4.523069433107744 -0.1605406270482575 -1.6314712296933669 0.002115030155531973 0.021680356635657642 -56.242296137568204 -0.028882004639538127 -0.010875073338298706 -56.23813989003184 -38.79264845895743 0.017595666116485862 0.0027685215135589882 -0.038472427668554215 -0.02858987650619903 -0.015751628842872515 -0.03383837773516272 0.017387275668199007 -0.017845882344414504 -36.72321852928196 0.017044807788013313 -0.034270096809027636 -0.04180011984771862 0.024939437320021626 -0.02352145811682353 0.009569926848917068 -0.0024892906218869663 -0.0310636609373814 -19.779357630715886 0.01147163041040126 0.022078497334037436 0.04057282968519664 -0.024892368098220728 0.01744592971910778 -0.04533715556373339 -0.010169969535278716 -0.001276984527549123 24.08372607511505 -0.019881754447500635 -0.014677764908068696 28.829037949601833 0.013404867681877595 0.008205348967908734 28.85044173094056 0.04026060172356786 -0.009372874227892767 8.60997195230373 2.188515584139797 15.450500593848911 -75.65750844462649 15.353859407700387 -5.575843622781273 3.1891325727641804 8.27611421717662 -44.59035682598451 -20.02149244445486 -0.2279579224555651 1.073097179687314 -0.44031927368004214 0.03054172221803051 -8.15567447172925 0.028760856100444054 0.044922466247214445 44.60389230255104 0.033571913838443754 -0.04309812739133887 44.55269060040773 12.494411068536662 0.02617350496470726 0.03998869973776599 -0.03416949309951925 -0.011225119164870992 0.017661834549186656 -0.005458808465506906 0.022903460673989517 0.041472201698347304 11.079535094218997 -0.02656165070247906 0.020445675421799852 0.023018355014669357 -0.04330209497158215 -0.028102307614487263 0.027798243387534782 0.033758852910952986 0.002781140620568086 4.8212404320727185 -0.006976425923062189 -0.023537069795110884 -0.021213855906104043 0.01852694734382196 0.021211770846595934 0.021105947631951543 0.028311142394081525 -0.001377875877489551 -5.561173462313815 0.023019035394986113 0.04311920203298783 -6.69896624705261 0.005502888382419786 0.03695866119469002 -6.7537254477834034 -0.04966049944401615 -0.01997878920774442 -0.02322554222732605 2.2592440727264545e-05 -0.008118743288087711 8.012176420245234 3.520377349893939 -19.201583376460967 0.027697721714406535 10.442595724896883 0.046049688572384714 -5.589744196864781 -15.673158002551276 3.1883543375719836 0.04336618883120949 -0.02725605170962257 0.04429305108069671 0.027829760812048812 4.708815904184869 -0.03851929465428892 12.469552595018198 -8.229683593812824 6.929783586374249 -0.019751832448297816 46.37562610921757 -0.0012271995769371354 -4.332060321319582 -14.72584810650129 -3.8003982268118026 -0.016688671080258767 -0.003835888610560778 0.027961890154318193 -0.007545853772937888 -10.758147794119152 0.0308085350278213 
-0.02695303438569906 -0.016561413423418336 0.025824479659753846 -0.042121805022022715 -0.046980343473362246 0.004172236237113247 5.815904447862272 3.0455550404128826 -2.3244185094625753 -0.6945569921857463 3.4475094455776416 0.3561635614996239 -0.5739123860790265 -1.0528098048675494 0.6937554513572473 -0.2628840647016125 -0.5493756744688968 -0.3190091596699106 0.18705732974641473 11.528749008567342 -1.7106736033681842 0.4382709940121971 -0.633738856267766 -3.2954929101529324 1.0183224378680629 -16.959164480498814 -0.3209133240096978 -9.46813459283104 3.36564726716248 -18.919586313251877 79.3250472944956 1.2039119748277838 -3.423834564627725 1.5828107948599512 7.3467348747073835 59.152892491512716 17.25042207093493 -0.3824931397408019 -2.9886058934904094 4.49038765052373 -0.16312655764437667 -1.6006140624645306 0.011044161611334617 -0.030164555581078663 -56.23653013529521 0.024649621509645125 -0.03165949720549824 -56.24913397677672 -38.74666825033523 -0.01918498733303552 -0.028794566873011896 -0.04249148864263224 -0.020646131551330174 -0.03626637691866169 -0.046898464142776354 0.021360434999029048 0.019366408617376263 -36.70645067479485 -0.044312694114583516 0.007301232365774362 0.00938812784466299 -0.03427179707031861 0.005239086855185488 -0.02006856265185725 -0.02509398291053942 -0.026504516318539367 -19.73471094531283 0.04049831678702315 0.022987049905022035 0.03745127723385935 0.00993662225456648 -0.03488231163592185 0.004718217852464323 0.037536551129261464 0.04679127342902227 24.090755607459744 -0.009861138339428938 -0.045380297254707644 28.845591734992393 0.011137783032160382 -0.01873825876543055 28.840554583240014 0.03822725360497371 0.01393502272436693 8.81991475432033 2.217778426302342 15.653383670038052 -74.99161804775612 14.3585140757778 -5.601011321967729 2.4186160490868724 8.19808174994635 -45.53287549997887 -19.836232944676738 -0.274300778667934 0.9541086766972934 -0.43779617969521145 0.09553347436571741 -8.077408692739237 0.0034524828027678958 -0.04302385314877847 44.53167010302318 -0.028656026925087848 0.040980034434977046 44.60401444703095 12.413568112679107 -0.04841258009238537 -0.04823937600653898 0.03183394599477158 -0.0049227554305913655 0.009592970863709513 0.03788454537420356 0.022486590969562757 -0.02637457359414827 11.079895132020171 0.04155380264593155 -0.03632698714777306 0.011503285976332009 -0.01988860396770919 -0.026041359905028365 -0.02061322626420792 0.024758206665474708 -0.008920323374806067 4.7682459956254055 -0.020552833723912308 0.038459696235389654 0.03016122894408115 0.008450297451672948 0.012484612113464627 -0.018030783590364186 0.028148564533264208 0.030091272424990316 -5.568466202875433 0.02663092457603812 0.030069093763176177 -6.709589289097297 -0.034185074838346284 -0.02190261853679418 -6.724155065271479 0.023084370561517343 -0.0009239758763105713 -0.0017951249470811032 0.03634397037718349 -0.02734707136026108 8.081393330179317 3.478575158836676 -19.251594514545033 0.02731293207225218 10.406730986385917 0.002788061247846859 -5.657109554033963 -15.63549148346893 3.1966765264123356 -0.025946190520418456 0.02353682471969783 -0.02249269228155932 -0.041362345147013264 4.664219466038842 -0.02192855898717373 12.421055495363257 -8.210431255123686 6.900667487040718 0.01738997682107798 46.38130478300346 0.042073902709128974 -4.37118750122837 -14.711194868322357 -3.846424608355678 -0.04862302610453208 -0.011485312570429397 0.03920787212706331 -0.04712004290802385 -10.73204349814556 -0.0072829427430629685 
0.003563563480682048 -0.0470088980214004 0.04733740485310978 -0.015512221802610845 -0.017356040692165686 -0.04915989459659224 5.627939810121707 3.0035776929685354 -2.356959900399165 -0.6964766800337145 3.434956379258171 0.40910212814118696 -0.606582684858684 -1.0564985530630482 0.7482095160963418 -0.2672332264269786 -0.5344569098165206 -0.24955232996743557 0.1995254441276958 11.690349466227172 -1.7362362147685348 0.4468489909096239 -0.5962118720488935 -3.4126690270018587 1.0747074153688232 -16.974448801111294 -0.3426570094697298 -9.691529882917127 3.4135259037853105 -19.058503623502762 78.03475416273521 0.7799572068865931 -2.8975907956455824 3.3969141332829436 7.004059647162269 63.91103716590203 17.07246853989376 -0.38719988741974903 -3.353792465750783 4.533468169425403 -0.10488354978985473 -1.548302083895624 0.02448814503368346 0.045224309034895556 -56.25086658310493 0.019389922538429576 -0.00335846162256498 -56.199436808025595 -38.774251860327816 -0.03867937044976687 -0.0009556886037204276 0.008255297675291812 -0.017457385875528402 -0.040550911617482865 0.03192647174452487 -0.011931329036181975 -0.027735056374222036 -36.72580004865529 0.04378807052342148 0.013825023097977472 -0.0006029608581188844 0.03735457271329166 -0.011142483832147798 -0.04440837662924705 -0.04792485639844103 0.008200347137365381 -19.771833670035797 -0.02869201893430033 -0.004809394672003804 0.013604530674895884 -0.01663889024462837 -0.0158789322310336 0.0013000586211071188 0.04442430180704467 -0.0329817428425611 24.03141153870948 -0.02123805492226481 -0.0022622984691836197 28.89007695931591 0.023966297740207167 0.02753823957245179 28.83268001112488 0.020055646481184703 -0.03430270177403454 8.961628501278701 2.2005586616422907 15.77019578278877 -74.43321581053341 13.671646190559443 -5.674582444794506 1.3155037741577296 8.173149067828014 -46.69050097424692 -19.87619361949022 -0.20015707122422266 0.7934513571993002 -0.5183724045274853 0.11742456917736288 -8.137362607289527 -0.04416750435668353 0.016192657199271203 44.52369092440799 0.0338222700284954 0.03306528728019921 44.524140879186135 12.417821746403463 0.03129378524136931 -0.004473539556336716 -0.03527453493842074 -0.023656610037089607 -0.011852177175107132 -0.008519649302355187 0.047170002633136726 0.00935400990790652 11.081064039075782 0.008652145631566589 0.029094756945045718 -0.02993703211846716 0.027805387416069756 0.029150793014514967 0.020650442700473965 0.038942298749401916 -0.02233501455127551 4.744475753594355 -0.006478078380253125 -0.009181297932715654 -0.03143892673174083 0.014296429963079123 -0.026391911083682516 0.028129462741414903 0.01376457725789442 -0.017187964850243646 -5.591614768845501 0.043819209425138096 0.014057242645613853 -6.756253086067147 -0.02900467027097248 0.002559749161706552 -6.716697191806014 0.011782490183510182 -0.025920401232619853 -0.005738265053844141 0.025748672277095604 0.008118636181979541 8.080463364710935 3.4931438247560194 -19.259488138548047 0.044799900751506756 10.404255630190276 -0.01736165541988977 -5.608115312473274 -15.626680358940249 3.1568256598821147 -0.03334345921482597 0.017136747080796783 0.04847936155667666 0.02897783171093226 4.726446598870327 -0.03830046152779249 12.48422915557098 -8.252698612456214 6.919344646199324 0.003538094273323727 46.40868245475124 -0.008441985749776348 -4.322720423648816 -14.76493853511077 -3.882007140260667 0.032489050148093494 -0.013850891638965307 -0.015710940023484072 0.02517678868553439 -10.719063637105542 0.004263724541252904 
-0.014838711124920948 0.00427612234004706 -0.029805841089355824 -0.020622551824924396 -0.04202234966584203 -0.011326321049810635 5.341140480418382 2.94773909746181 -2.2886519962635363 -0.7816890770850302 3.495707841816094 0.39682540004119643 -0.5530034365964525 -1.1495729150673784 0.8517343851471394 -0.33451073787378616 -0.510918030797993 -0.2797125356851454 0.16372674189220543 11.981792183342417 -1.7508879633601921 0.4916988137464494 -0.609128898781271 -3.5865057807977996 1.1009644914504761 -16.97647048077942 -0.29929918741145584 -9.80672915588022 3.3965321800806323 -19.096498769579323 76.84219865990505 0.46170761691052437 -1.9970415324259616 5.132557324028454 6.846142758398406 68.7703955822475 17.245155628662406 -0.46175782112256036 -3.800240355328032 4.499261174527671 -0.1129701133023068 -1.5711291735571777 0.0020544609009940334 0.03983570512352641 -56.27437494809858 0.046858012770731275 0.049308126966378964 -56.216663586668744 -38.765655284174805 -0.018648943183365116 -0.03542014751645319 -0.02374572486614924 0.025292777451231305 0.011679275338439538 0.03458348242034567 -0.016830535065347634 -0.009202040609540718 -36.652639593480565 -0.03329434189332018 -0.0028039911938884435 0.03924268547828673 0.0350472385699664 -0.03377945465083754 0.0170835967486362 -0.03782643747302434 0.04613919838819493 -19.749455473381143 0.0005554781856048592 -0.02105059934983135 -0.013140155667037103 -0.006954822139597305 0.01795781426541302 0.04337458845799131 -0.0029281063288857574 0.014780076620694286 24.044485362050477 -0.0010426790240461506 0.016815904717521018 28.887570618493896 -0.0056320531163554805 0.018504609924495263 28.899795794167034 0.0025403837861782516 -0.019295188128140506 9.041638298231629 2.194070466943001 15.906465669348767 -74.04673983724655 13.243399221097249 -5.843707099249956 0.42447028547729854 8.28751423960171 -47.43639083322679 -19.936664016228935 0.03534201403776607 0.43741019351753485 -0.4449416631754155 0.11101061226310241 -8.137309116333684 -0.03257739351747317 -0.031097852651675185 44.612089135960424 -0.04188426608838235 0.045383382149884674 44.52232239902577 12.411705393863938 -0.002139426054040539 -0.009142244847367973 -0.0132177117332084 -0.0026058743447086793 0.015381934985872899 -0.024813438957517003 -0.013985054267852445 0.01963019899341173 11.09724326821707 0.0027303052974660996 0.020457708062341207 0.024281806170877593 -0.012032478314485924 0.02992191409370861 -0.038276419873188965 0.0031359176925889166 0.029398954837583115 4.7914425647053385 -0.020352520698135552 -0.02402373822706475 0.018751576687084767 0.006008343388186332 -0.027804986625774058 0.0018904202372979164 0.04280489817035868 0.012446778967746151 -5.616340608499823 0.02752854902362759 -0.037470054664701956 -6.761105304093684 -0.012779141269163971 0.04687344049049229 -6.748246520184495 0.02871603523997324 0.04971911998354212 -0.012969616597515752 -0.01672305459016857 -0.007944988644167435 7.995501617244611 3.5328948936647784 -19.205711007485892 -0.003207871470584885 10.423145245592089 -0.010431812109287782 -5.652440004161698 -15.626881083508374 3.19545486058689 -0.024734022923400028 0.039633100867662245 -0.0297288187554581 -0.011000942150404524 4.724534217489967 -0.01097760928220904 12.490307905673589 -8.232361780749796 6.9113675137245405 -0.013498484965435768 46.36125828876137 0.006202343591957752 -4.365507645803189 -14.746723213149652 -3.821286788992235 0.04066461182057444 0.01615334146459643 0.013464200679525664 -0.04448924096351182 -10.77297274617512 0.01700943127536082 
